<svg width="46" height="46" viewBox="0 0 46 46" fill="none" xmlns="http://www.w3.org/2000/svg">
<path d="M0.777832 39.4915C0.777832 42.6568 3.34363 45.2222 6.50856 45.2222H39.4914C42.6568 45.2222 45.2223 42.6564 45.2223 39.4915V6.50868C45.2223 3.34323 42.6565 0.777779 39.4915 0.777779H6.50873C3.34328 0.777779 0.777832 3.34358 0.777832 6.50851V39.4913V39.4915Z" fill="#563D7C"/>
<path d="M19.2081 20.4372V14.1432H24.7482C25.276 14.1432 25.7847 14.1872 26.2746 14.2752C26.7645 14.363 27.198 14.52 27.575 14.7462C27.9517 14.9724 28.2533 15.2865 28.4795 15.6884C28.7055 16.0905 28.8187 16.6056 28.8187 17.2335C28.8187 18.3642 28.4795 19.1809 27.801 19.6833C27.1227 20.1859 26.2559 20.4372 25.2005 20.4372H19.2081V20.4372ZM13.2909 9.54514V36.4549H26.3312C27.5373 36.4549 28.7119 36.3042 29.8552 36.0026C30.9984 35.701 32.0159 35.2363 32.908 34.6082C33.7998 33.98 34.5097 33.1696 35.0373 32.1773C35.5651 31.1847 35.8288 30.0101 35.8288 28.6533C35.8288 26.9698 35.4205 25.5314 34.604 24.338C33.7873 23.1444 32.5498 22.309 30.8915 21.8316C32.0975 21.2538 33.0085 20.5125 33.6241 19.608C34.2396 18.7035 34.5474 17.5729 34.5474 16.216C34.5474 14.9597 34.3401 13.9045 33.9255 13.0502C33.5109 12.196 32.9267 11.5113 32.1729 10.9962C31.4192 10.4811 30.5147 10.1104 29.4593 9.88438C28.4041 9.65816 27.2357 9.54514 25.9543 9.54514H13.2909V9.54514ZM19.2081 31.8568V24.4698H25.6527C26.9342 24.4698 27.9644 24.7649 28.7434 25.3556C29.5222 25.946 29.9118 26.9321 29.9118 28.3141C29.9118 29.0177 29.7923 29.5955 29.5536 30.0477C29.3149 30.5 28.9946 30.8582 28.5925 31.1219C28.1906 31.3858 27.7256 31.5741 27.198 31.6873C26.6703 31.8002 26.1177 31.8568 25.5397 31.8568H19.2081V31.8568Z" fill="white"/>
</svg>
