<svg width="40" height="46" viewBox="0 0 40 46" fill="none" xmlns="http://www.w3.org/2000/svg">
<path d="M39.5944 0.777779L36.0242 40.7731L19.976 45.2222L3.97194 40.7794L0.405518 0.777779H39.5944Z" fill="#264DE4"/>
<path d="M32.9677 38.2264L36.0187 4.0485H20V41.8215L32.9677 38.2264Z" fill="#2965F1"/>
<path d="M8.58142 18.8846L9.02113 23.7905H19.9999V18.8846H8.58142Z" fill="#EBEBEB"/>
<path d="M20 8.95454H19.983H7.698L8.14398 13.8606H20V8.95454Z" fill="#EBEBEB"/>
<path d="M19.9999 36.7302V31.6259L19.9784 31.6316L14.5145 30.1563L14.1652 26.2435H11.5102H9.24036L9.92769 33.9467L19.9773 36.7365L19.9999 36.7302Z" fill="#EBEBEB"/>
<path d="M26.0243 23.7905L25.4548 30.1532L19.983 31.6301V36.7342L30.0407 33.9467L30.1145 33.1179L31.2673 20.2019L31.387 18.8845L32.2727 8.95454H19.983V13.8606H26.8961L26.4497 18.8845H19.983V23.7905H26.0243Z" fill="white"/>
</svg>
