<svg width="30" height="46" viewBox="0 0 30 46" fill="none" xmlns="http://www.w3.org/2000/svg">
<path d="M7.59259 45.2222C11.6815 45.2222 15 41.9037 15 37.8148V30.4074H7.59259C3.5037 30.4074 0.185181 33.726 0.185181 37.8148C0.185181 41.9037 3.5037 45.2222 7.59259 45.2222Z" fill="#0ACF83"/>
<path d="M0.185181 23C0.185181 18.9111 3.5037 15.5926 7.59259 15.5926H15V30.4073H7.59259C3.5037 30.4073 0.185181 27.0888 0.185181 23Z" fill="#A259FF"/>
<path d="M0.185181 8.18518C0.185181 4.0963 3.5037 0.777779 7.59259 0.777779H15V15.5926H7.59259C3.5037 15.5926 0.185181 12.2741 0.185181 8.18518Z" fill="#F24E1E"/>
<path d="M15 0.777779H22.4074C26.4963 0.777779 29.8148 4.0963 29.8148 8.18518C29.8148 12.2741 26.4963 15.5926 22.4074 15.5926H15V0.777779Z" fill="#FF7262"/>
<path d="M29.8148 23C29.8148 27.0888 26.4963 30.4073 22.4074 30.4073C18.3185 30.4073 15 27.0888 15 23C15 18.9111 18.3185 15.5926 22.4074 15.5926C26.4963 15.5926 29.8148 18.9111 29.8148 23Z" fill="#1ABCFE"/>
</svg>
