<svg width="46" height="46" viewBox="0 0 46 46" fill="none" xmlns="http://www.w3.org/2000/svg">
<path d="M44.3841 21.0198L24.9792 1.61598C23.8624 0.498441 22.0499 0.498441 20.9316 1.61598L16.9021 5.64549L22.0138 10.7571C23.2016 10.3557 24.5638 10.625 25.5106 11.5719C26.462 12.5248 26.7294 13.8986 26.3183 15.0903L31.2445 20.0167C32.4363 19.6061 33.8115 19.8717 34.7634 20.8252C36.0938 22.155 36.0938 24.3104 34.7634 25.6411C33.4327 26.9721 31.2773 26.9721 29.9459 25.6411C28.9452 24.6394 28.698 23.1698 29.2046 21.937L24.6105 17.3429L24.6099 29.4326C24.943 29.5973 25.2471 29.8148 25.5106 30.0767C26.841 31.4066 26.841 33.5622 25.5106 34.8939C24.1799 36.2241 22.0235 36.2241 20.6947 34.8939C19.3643 33.5622 19.3643 31.4068 20.6947 30.0769C21.0135 29.7579 21.3924 29.5053 21.8094 29.3337V17.1313C21.3918 16.9608 21.0127 16.708 20.6947 16.388C19.6867 15.3814 19.4443 13.9024 19.9608 12.6648L14.9219 7.62535L1.61637 20.93C0.498318 22.0486 0.498318 23.8613 1.61637 24.979L21.0216 44.3832C22.1388 45.5009 23.9509 45.5009 25.0695 44.3832L44.3839 25.0691C45.5016 23.951 45.5016 22.1373 44.3839 21.0198" fill="#DE4C36"/>
</svg>
