<svg width="46" height="44" viewBox="0 0 46 44" fill="none" xmlns="http://www.w3.org/2000/svg">
<path d="M23.0001 0.326332C10.7287 0.326332 0.777832 10.2754 0.777832 22.5486C0.777832 32.3672 7.14519 40.697 15.9749 43.6355C17.0854 43.8411 17.4932 43.1534 17.4932 42.5664C17.4932 42.0366 17.4725 40.2859 17.4631 38.429C11.2806 39.7733 9.97611 35.8071 9.97611 35.8071C8.96526 33.2385 7.50875 32.5556 7.50875 32.5556C5.49261 31.1763 7.66073 31.2045 7.66073 31.2045C9.89228 31.3614 11.0673 33.4947 11.0673 33.4947C13.0493 36.892 16.2659 35.9097 17.534 35.3421C17.7334 33.9056 18.3094 32.9254 18.9449 32.3705C14.0091 31.8084 8.82025 29.903 8.82025 21.3881C8.82025 18.962 9.68837 16.9795 11.11 15.4233C10.8793 14.8635 10.1187 12.6034 11.3253 9.54239C11.3253 9.54239 13.1913 8.94511 17.438 11.8203C19.2105 11.3278 21.1116 11.081 23.0001 11.0726C24.8887 11.081 26.7912 11.3278 28.5672 11.8203C32.8088 8.94511 34.6722 9.54239 34.6722 9.54239C35.8818 12.6034 35.1208 14.8635 34.8901 15.4233C36.3149 16.9795 37.1771 18.9618 37.1771 21.3881C37.1771 29.9232 31.9785 31.8027 27.0302 32.3527C27.8272 33.0424 28.5374 34.3948 28.5374 36.468C28.5374 39.4413 28.5116 41.8344 28.5116 42.5664C28.5116 43.1578 28.9116 43.8507 30.0381 43.6325C38.8629 40.6907 45.2223 32.3639 45.2223 22.5486C45.2223 10.2754 35.2728 0.326332 23.0001 0.326332Z" fill="#161614"/>
<path d="M9.10081 31.9826C9.05201 32.0929 8.87807 32.126 8.72 32.0504C8.55878 31.9779 8.46815 31.8273 8.52044 31.7164C8.56837 31.6028 8.7423 31.5711 8.90317 31.6474C9.06473 31.7197 9.15676 31.8717 9.10081 31.9826V31.9826ZM10.1939 32.9579C10.088 33.0562 9.88074 33.0105 9.74009 32.8552C9.59474 32.7003 9.56755 32.4932 9.67508 32.3934C9.78436 32.2952 9.98531 32.3411 10.131 32.4962C10.2764 32.6529 10.3046 32.8587 10.1938 32.958L10.1939 32.9579ZM10.9439 34.2057C10.8076 34.3004 10.5849 34.2117 10.4473 34.014C10.3112 33.8166 10.3112 33.5795 10.4503 33.4846C10.5883 33.3896 10.8076 33.475 10.947 33.671C11.083 33.872 11.083 34.109 10.9437 34.2059L10.9439 34.2057ZM12.212 35.6511C12.0902 35.7853 11.8308 35.7494 11.6409 35.5661C11.4467 35.3869 11.3925 35.1326 11.5147 34.9982C11.6379 34.8637 11.8988 34.9015 12.0902 35.0833C12.2831 35.2621 12.342 35.5183 12.2122 35.6511H12.212ZM13.851 36.1391C13.7975 36.313 13.5475 36.3922 13.2959 36.3183C13.0446 36.2421 12.88 36.0382 12.9307 35.8623C12.983 35.6872 13.234 35.6047 13.4876 35.6839C13.7386 35.7597 13.9034 35.962 13.8512 36.1391H13.851ZM15.7165 36.346C15.7228 36.5293 15.5093 36.6813 15.2451 36.6846C14.9793 36.6904 14.7644 36.5421 14.7616 36.3618C14.7616 36.1767 14.9702 36.0262 15.2359 36.0218C15.5001 36.0166 15.7165 36.1639 15.7165 36.346V36.346ZM17.549 36.2757C17.5807 36.4546 17.397 36.6383 17.1347 36.6871C16.8768 36.7341 16.638 36.6238 16.605 36.4465C16.573 36.2632 16.7602 36.0797 17.0176 36.0321C17.2804 35.9864 17.5155 36.094 17.549 36.2757" fill="#161614"/>
</svg>
