<svg width="46" height="46" viewBox="0 0 46 46" fill="none" xmlns="http://www.w3.org/2000/svg">
<path d="M45.2223 0.777779H0.777832V45.2222H45.2223V0.777779Z" fill="#F7DF1E"/>
<path d="M30.6332 35.5002C31.5284 36.9619 32.6932 38.0363 34.7531 38.0363C36.4836 38.0363 37.5891 37.1714 37.5891 35.9764C37.5891 34.5443 36.4533 34.0371 34.5485 33.2039L33.5044 32.7559C30.4907 31.472 28.4886 29.8635 28.4886 26.4632C28.4886 23.3309 30.8752 20.9464 34.605 20.9464C37.2603 20.9464 39.1693 21.8706 40.545 24.2903L37.2928 26.3785C36.5768 25.0945 35.8043 24.5887 34.605 24.5887C33.3817 24.5887 32.6064 25.3647 32.6064 26.3785C32.6064 27.6314 33.3824 28.1386 35.1743 28.9146L36.2184 29.3619C39.7669 30.8836 41.7704 32.4349 41.7704 35.9228C41.7704 39.6829 38.8166 41.7429 34.8498 41.7429C30.9711 41.7429 28.4653 39.8945 27.2392 37.472L30.6332 35.5002ZM15.8798 35.8621C16.5358 37.0261 17.1327 38.0102 18.5676 38.0102C19.9397 38.0102 20.8053 37.4734 20.8053 35.3859V21.1848H24.9817V35.4423C24.9817 39.7669 22.4462 41.7351 18.7454 41.7351C15.4014 41.7351 13.4649 40.0046 12.4801 37.9203L15.8798 35.8621Z" fill="black"/>
</svg>
