<svg width="22" height="30" viewBox="0 0 22 30" fill="none" xmlns="http://www.w3.org/2000/svg">
<g id="Vector">
<path d="M14.2616 21.02C13.9434 20.8363 13.5365 20.9453 13.3527 21.2636L11.1008 25.1641C9.6733 27.6365 6.51181 28.4836 4.03938 27.0562C1.56694 25.6287 0.719826 22.4672 2.14729 19.9948L4.39925 16.0943C4.58299 15.776 4.47395 15.3691 4.15572 15.1854C3.83748 15.0016 3.43056 15.1107 3.24683 15.4289L0.994858 19.3294C-0.800066 22.4383 0.265122 26.4137 3.37402 28.2086C6.48293 30.0035 10.4583 28.9383 12.2532 25.8294L14.5052 21.9289C14.6889 21.6107 14.5799 21.2037 14.2616 21.02Z" fill="#0F6DFB"/>
<path d="M17.6008 13.9057C17.417 14.224 17.5261 14.6309 17.8443 14.8146C18.1625 14.9984 18.5695 14.8893 18.7532 14.5711L21.0052 10.6706C22.8001 7.56168 21.7349 3.58634 18.626 1.79141C15.5171 -0.00351307 11.5418 1.06168 9.74683 4.17058L7.49486 8.0711C7.31113 8.38933 7.42016 8.79626 7.73839 8.97999C8.05663 9.16372 8.46355 9.05469 8.64729 8.73645L10.8993 4.83593C12.3267 2.3635 15.4882 1.51638 17.9606 2.94384C20.4331 4.3713 21.2802 7.53279 19.8527 10.0052L17.6008 13.9057Z" fill="#0F6DFB"/>
<path d="M14.5439 7.53114C14.7276 7.21291 15.1345 7.10387 15.4528 7.2876C15.771 7.47134 15.88 7.87826 15.6963 8.1965L7.45614 22.4689C7.27241 22.7871 6.86549 22.8961 6.54725 22.7124C6.22902 22.5287 6.11998 22.1217 6.30372 21.8035L14.5439 7.53114Z" fill="#0F6DFB"/>
</g>
</svg>
