<svg width="46" height="46" viewBox="0 0 46 46" fill="none" xmlns="http://www.w3.org/2000/svg">
<path d="M41.7158 35.109C39.2976 35.0478 37.4235 35.2933 35.8516 35.9683C35.3981 36.1522 34.6726 36.1524 34.6121 36.7354C34.854 36.9809 34.8842 37.3799 35.0958 37.7173C35.459 38.3308 36.0933 39.1594 36.6677 39.5892C37.3024 40.08 37.9374 40.5708 38.6021 41.0004C39.7812 41.7369 41.1113 42.1664 42.26 42.9028C42.9252 43.3321 43.5898 43.8848 44.2549 44.345C44.5874 44.5901 44.7989 44.9894 45.2223 45.1426V45.0508C45.0105 44.7744 44.95 44.3756 44.7386 44.0688C44.4366 43.7619 44.134 43.4857 43.8316 43.1788C42.9551 41.9824 41.867 40.939 40.6881 40.08C39.7209 39.4049 37.6047 38.4844 37.2119 37.349C37.2119 37.349 37.1814 37.3185 37.1514 37.2878C37.8163 37.2264 38.6021 36.9809 39.2372 36.7968C40.2649 36.5205 41.2019 36.582 42.26 36.3058C42.7435 36.1831 43.2272 36.0296 43.7107 35.8762V35.6002C43.1669 35.0478 42.7739 34.3115 42.1995 33.7898C40.6579 32.4394 38.9649 31.1202 37.2119 30.0157C36.2747 29.4019 35.0654 29.003 34.068 28.4815C33.7055 28.2972 33.1007 28.2053 32.8893 27.8985C32.345 27.2235 32.0427 26.3338 31.6498 25.5359C30.7735 23.8481 29.9268 21.9766 29.171 20.1971C28.6272 19.0003 28.2947 17.8035 27.6296 16.6991C24.5161 11.4828 21.1305 8.3224 15.9315 5.22318C14.8129 4.57893 13.4829 4.30275 12.0622 3.96537C11.3068 3.9345 10.5508 3.87331 9.79521 3.84244C9.3115 3.62763 8.8278 3.04475 8.40457 2.76857C6.6819 1.66384 2.23808 -0.729225 0.968538 2.43119C0.152294 4.4255 2.17779 6.38912 2.87276 7.40196C3.38704 8.10759 4.05178 8.90528 4.41456 9.70314C4.62618 10.2245 4.68647 10.7772 4.89808 11.3294C5.38196 12.6791 5.83508 14.1829 6.47011 15.4411C6.80266 16.0853 7.16526 16.7603 7.5885 17.3433C7.83035 17.6807 8.25341 17.8343 8.34428 18.3865C7.92121 19.0003 7.89081 19.9209 7.64878 20.6879C6.56063 24.1552 6.98404 28.4508 8.52549 30.9975C9.00902 31.7643 10.1578 33.4525 11.6994 32.8079C13.0598 32.2557 12.7575 30.5067 13.1502 28.9725C13.2412 28.6039 13.1808 28.3588 13.362 28.1133V28.1748C13.7852 29.0337 14.2083 29.8624 14.6013 30.7215C15.5385 32.2248 17.1706 33.7898 18.5308 34.8332C19.2566 35.3852 19.8308 36.3365 20.7377 36.6741V36.5818H20.6771C20.4957 36.3057 20.2236 36.1831 19.9819 35.9681C19.4379 35.4161 18.8331 34.741 18.4101 34.1272C17.1407 32.4087 16.022 30.5065 15.0245 28.5427C14.541 27.5918 14.1176 26.5484 13.7248 25.5973C13.5432 25.2287 13.5432 24.6767 13.2411 24.4927C12.7876 25.1677 12.1227 25.7507 11.7901 26.5791C11.2161 27.8985 11.1554 29.5247 10.9438 31.2121C10.8229 31.2432 10.8832 31.2121 10.8227 31.2739C9.85567 31.028 9.52312 30.0157 9.16017 29.1564C8.25324 26.978 8.10208 23.48 8.88827 20.9641C9.09989 20.3196 10.0068 18.2946 9.64405 17.6809C9.46266 17.0978 8.85786 16.7603 8.52549 16.3002C8.13266 15.7171 7.70925 14.981 7.43734 14.3364C6.71179 12.6181 6.34901 10.7156 5.56317 8.99734C5.2004 8.19948 4.56589 7.37128 4.05178 6.63479C3.47756 5.80641 2.8427 5.22318 2.38923 4.24137C2.23825 3.90399 2.02646 3.35163 2.26831 2.98338C2.32877 2.73788 2.44952 2.646 2.69155 2.58463C3.08455 2.24689 4.20311 2.67651 4.59577 2.86063C5.71433 3.32059 6.65133 3.75056 7.5885 4.39481C8.01156 4.70168 8.46503 5.28473 9.00902 5.43817H9.64388C10.6113 5.6528 11.6993 5.49954 12.6062 5.77555C14.2085 6.29705 15.6592 7.06423 16.9592 7.89278C20.9191 10.4395 24.1834 14.0602 26.3903 18.3865C26.753 19.092 26.904 19.7368 27.2366 20.4729C27.8716 21.9766 28.6574 23.5107 29.292 24.9835C29.9268 26.4255 30.5313 27.8985 31.4382 29.0953C31.8917 29.7393 33.7052 30.0771 34.5214 30.4146C35.1261 30.6906 36.0632 30.9363 36.6072 31.2737C37.6349 31.9178 38.6626 32.6546 39.63 33.36C40.1137 33.7283 41.6249 34.4955 41.7158 35.109V35.109Z" fill="#00546B"/>
<path d="M10.8829 8.4448C10.3692 8.4448 10.0066 8.50653 9.6438 8.59841V8.65979H9.70426C9.94628 9.15078 10.3692 9.48834 10.6713 9.91778C10.9133 10.4086 11.1248 10.8998 11.3668 11.3908C11.3969 11.3599 11.4271 11.3294 11.4271 11.3294C11.8505 11.0223 12.062 10.5315 12.062 9.79503C11.8806 9.5804 11.8503 9.36559 11.6992 9.15078C11.518 8.84373 11.1248 8.69047 10.8829 8.4448V8.4448Z" fill="#00546B"/>
</svg>
