<svg width="42" height="46" viewBox="0 0 42 46" fill="none" xmlns="http://www.w3.org/2000/svg">
<path d="M19.1804 1.25194C20.2824 0.621151 21.7177 0.618302 22.8188 1.25194C28.3582 4.38197 33.8993 7.5071 39.4377 10.639C40.4794 11.2258 41.1762 12.3851 41.1656 13.5855V32.417C41.1734 33.667 40.4077 34.854 39.3087 35.4275C33.7876 38.5403 28.2692 41.6568 22.749 44.7696C21.6242 45.4128 20.16 45.3632 19.0703 44.6674C17.4151 43.7078 15.757 42.753 14.1016 41.7944C13.7633 41.5927 13.382 41.4322 13.1432 41.1042C13.3543 40.8196 13.7318 40.7842 14.0386 40.6599C14.7295 40.4402 15.3641 40.0875 15.9989 39.7453C16.1594 39.6355 16.3553 39.6776 16.5092 39.7759C17.9246 40.5874 19.3276 41.4226 20.7477 42.2264C21.0507 42.4013 21.3575 42.1691 21.6164 42.0247C27.0344 38.9626 32.459 35.912 37.876 32.8489C38.0768 32.7524 38.1877 32.5393 38.1714 32.3194C38.1752 26.1073 38.1724 19.8941 38.1733 13.682C38.1963 13.4325 38.0519 13.2032 37.8263 13.1011C32.3243 10.0026 26.8251 6.89927 21.3241 3.79994C21.2288 3.73442 21.1159 3.69926 21.0002 3.69909C20.8845 3.69892 20.7715 3.73375 20.676 3.79899C15.175 6.89927 9.67675 10.0054 4.17568 13.1038C3.95091 13.206 3.80006 13.4316 3.82681 13.682C3.82776 19.8941 3.82681 26.1073 3.82681 32.3204C3.81727 32.4277 3.84083 32.5353 3.89432 32.6288C3.94781 32.7223 4.02866 32.7971 4.12598 32.8432C5.59396 33.6757 7.06385 34.5023 8.53279 35.3319C9.36033 35.7773 10.3764 36.042 11.2881 35.7007C12.0927 35.4121 12.6567 34.5911 12.6414 33.7368C12.649 27.5609 12.6376 21.3841 12.6471 15.2092C12.627 14.935 12.887 14.7085 13.1536 14.7343C13.8589 14.7296 14.5652 14.7248 15.2706 14.7362C15.565 14.7296 15.7676 15.0248 15.7312 15.301C15.7284 21.516 15.7388 27.7311 15.7265 33.946C15.7284 35.6024 15.0479 37.4047 13.5158 38.2151C11.6283 39.1929 9.29543 38.9855 7.43077 38.048C5.81652 37.2423 4.27604 36.2914 2.69044 35.4283C1.58858 34.8579 0.826731 33.6662 0.834487 32.4171V13.5855C0.822932 12.3603 1.54743 11.1799 2.62159 10.6017C8.14181 7.48637 13.6611 4.36868 19.1804 1.25194Z" fill="#8CC84B"/>
<path d="M23.9961 14.2966C26.4037 14.1417 28.9812 14.2048 31.1477 15.3909C32.8251 16.2998 33.7551 18.2074 33.7847 20.0709C33.7378 20.3223 33.4751 20.4609 33.2351 20.4437C32.5365 20.4427 31.8379 20.4532 31.1393 20.4389C30.843 20.4503 30.6708 20.1771 30.6336 19.9151C30.4329 19.0235 29.9466 18.1404 29.1073 17.7103C27.819 17.0653 26.3252 17.0977 24.9204 17.1112C23.8948 17.1656 22.792 17.2544 21.9232 17.8575C21.2561 18.3144 21.0535 19.2366 21.2916 19.9793C21.516 20.5125 22.1316 20.6846 22.6353 20.8432C25.5368 21.602 28.6114 21.5265 31.4575 22.5252C32.6358 22.9323 33.7885 23.7238 34.1918 24.9575C34.7194 26.611 34.4881 28.5874 33.3117 29.9148C32.3577 31.0072 30.9682 31.6017 29.5824 31.9246C27.7388 32.3357 25.8255 32.3462 23.9532 32.1637C22.1927 31.963 20.3607 31.5004 19.0016 30.3009C17.8394 29.2918 17.2718 27.7195 17.3282 26.202C17.3416 25.9457 17.5968 25.767 17.8423 25.788C18.5457 25.7823 19.2492 25.7804 19.9526 25.789C20.2336 25.7689 20.4419 26.0117 20.4563 26.2765C20.5861 27.1261 20.9054 28.0177 21.6462 28.5214C23.0758 29.4438 24.8698 29.3806 26.5068 29.4064C27.863 29.3463 29.3855 29.328 30.4922 28.4316C31.0762 27.9204 31.2492 27.065 31.0914 26.3291C30.9204 25.7078 30.2705 25.4183 29.7123 25.229C26.8481 24.3229 23.7391 24.6517 20.9025 23.6271C19.751 23.2201 18.6374 22.4506 18.195 21.2676C17.5776 19.5932 17.8605 17.5221 19.1602 16.2395C20.4275 14.9637 22.2568 14.4723 23.9961 14.2965V14.2966Z" fill="#8CC84B"/>
</svg>
