<svg width="46" height="24" viewBox="0 0 46 24" fill="none" xmlns="http://www.w3.org/2000/svg">
<path fill-rule="evenodd" clip-rule="evenodd" d="M23.0001 23.2616C35.2731 23.2616 45.2223 18.2194 45.2223 12C45.2223 5.78057 35.2731 0.738388 23.0001 0.738388C10.7273 0.738388 0.777832 5.78057 0.777832 12C0.777832 18.2194 10.7273 23.2616 23.0001 23.2616Z" fill="#6E81B6"/>
<path fill-rule="evenodd" clip-rule="evenodd" d="M27.5037 15.6399L28.606 9.96679C28.8548 8.68636 28.6479 7.73134 27.9914 7.12781C27.3554 6.54389 26.2757 6.25986 24.6908 6.25986H22.7818L23.3279 3.44909C23.3381 3.39678 23.3366 3.34285 23.3235 3.29117C23.3105 3.2395 23.2861 3.19135 23.2522 3.1502C23.2183 3.10905 23.1758 3.07591 23.1276 3.05316C23.0794 3.03041 23.0267 3.01861 22.9734 3.01861H20.3387C20.1656 3.01861 20.017 3.14141 19.984 3.31124L18.8132 9.33396C18.7068 8.65626 18.4445 8.07369 18.0248 7.59295C17.2519 6.70834 16.0295 6.25986 14.3912 6.25986H9.28451C9.11146 6.25986 8.96286 6.38266 8.92981 6.55222L6.56054 18.7433C6.53985 18.8495 6.56753 18.9586 6.63632 19.0419C6.70484 19.1254 6.80696 19.1735 6.91525 19.1735H9.57069C9.74375 19.1735 9.89235 19.0507 9.9254 18.8806L10.4986 15.932H12.4752C13.5125 15.932 14.3842 15.8197 15.0646 15.5983C15.7603 15.372 16.4006 14.9883 16.9649 14.46C17.4209 14.0411 17.7977 13.5719 18.0876 13.0659L17.6144 15.5015C17.5937 15.6077 17.6214 15.7173 17.6902 15.8001C17.7587 15.8836 17.8611 15.9317 17.9691 15.9317H20.6039C20.7769 15.9317 20.9255 15.8089 20.9586 15.6394L22.2589 8.94755H24.0668C24.8372 8.94755 25.0629 9.10099 25.1245 9.16682C25.1801 9.22702 25.2957 9.43903 25.1659 10.1073L24.1179 15.5013C24.1078 15.5536 24.1095 15.6074 24.1226 15.659C24.1358 15.7106 24.1602 15.7587 24.1941 15.7998C24.2279 15.8409 24.2705 15.874 24.3186 15.8967C24.3668 15.9195 24.4193 15.9314 24.4726 15.9315H27.1493C27.233 15.9316 27.3142 15.9026 27.3789 15.8494C27.4436 15.7962 27.4877 15.7221 27.5037 15.6399V15.6399ZM15.2884 10.9524C15.1229 11.8029 14.8112 12.4094 14.3614 12.7553C13.9045 13.1075 13.1739 13.286 12.1896 13.286H11.0126L11.8636 8.90644H13.3854C14.5032 8.90644 14.9536 9.14533 15.1344 9.34552C15.3852 9.62337 15.4384 10.1793 15.2884 10.9524V10.9524ZM38.6019 7.59295C37.8294 6.70834 36.607 6.25986 34.9686 6.25986H29.8619C29.6886 6.25986 29.5403 6.38266 29.5072 6.55222L27.1382 18.7433C27.1173 18.8495 27.145 18.9586 27.2137 19.0419C27.2825 19.1252 27.3849 19.1735 27.4924 19.1735H30.1481C30.3214 19.1735 30.4698 19.0507 30.5028 18.8806L31.076 15.932H33.0529C34.0904 15.932 34.9614 15.8197 35.642 15.5983C36.338 15.372 36.9783 14.9883 37.5424 14.46C38.0131 14.0276 38.4004 13.5415 38.6938 13.0167C38.9872 12.4919 39.1976 11.9066 39.3205 11.2768C39.6222 9.72333 39.3806 8.48402 38.6019 7.59295V7.59295ZM36.0166 10.9524C35.8508 11.8029 35.5391 12.4094 35.0898 12.7553C34.6327 13.1075 33.9021 13.286 32.918 13.286H31.7408L32.5915 8.90644H34.1136C35.2314 8.90644 35.6818 9.14533 35.8629 9.34552C36.1131 9.62337 36.1665 10.1793 36.0166 10.9524V10.9524Z" fill="white"/>
<path fill-rule="evenodd" clip-rule="evenodd" d="M13.3098 8.54507C14.3185 8.54507 14.9911 8.73129 15.3273 9.10373C15.6632 9.47617 15.7433 10.1157 15.5675 11.0215C15.3837 11.965 15.0301 12.6384 14.5061 13.042C13.9821 13.4456 13.1845 13.6472 12.114 13.6472H10.4985L11.49 8.54507H13.3098ZM6.83936 18.8121H9.49481L10.1249 15.5712H12.3996C13.4033 15.5712 14.229 15.4656 14.8772 15.2546C15.5253 15.0437 16.1146 14.6903 16.6448 14.194C17.0898 13.7853 17.4499 13.3338 17.7256 12.8405C18.001 12.3471 18.1966 11.803 18.3125 11.2078C18.5935 9.76262 18.3815 8.63697 17.6769 7.83082C16.9726 7.02441 15.8518 6.62134 14.3156 6.62134H9.20889L6.83936 18.8121V18.8121ZM20.2628 3.3801H22.8976L22.2677 6.62134H24.6152C26.0915 6.62134 27.1108 6.87877 27.6713 7.39389C28.2318 7.90902 28.3998 8.74392 28.1757 9.89805L27.0734 15.5712H24.3967L25.4447 10.177C25.5638 9.56323 25.5202 9.14484 25.313 8.92154C25.1059 8.69851 24.6649 8.58672 23.991 8.58672H21.8853L20.528 15.5712H17.8933L20.2628 3.3801ZM34.038 8.54507C35.0467 8.54507 35.7191 8.73129 36.0555 9.10373C36.3914 9.47617 36.4712 10.1157 36.2955 11.0215C36.1122 11.965 35.7586 12.6384 35.2343 13.042C34.7106 13.4456 33.9128 13.6472 32.8427 13.6472H31.2272L32.2185 8.54507H34.038V8.54507ZM27.567 18.8121H30.2228L30.8526 15.5712H33.1273C34.1312 15.5712 34.957 15.4656 35.6051 15.2546C36.2533 15.0437 36.8426 14.6903 37.3728 14.194C37.8177 13.7853 38.1778 13.3338 38.4533 12.8405C38.7287 12.3471 38.9246 11.803 39.0407 11.2078C39.3215 9.76262 39.1095 8.63697 38.4052 7.83082C37.7003 7.02441 36.5798 6.62134 35.0435 6.62134H29.9368L27.567 18.8121V18.8121Z" fill="black"/>
</svg>
