<svg width="46" height="46" viewBox="0 0 46 46" fill="none" xmlns="http://www.w3.org/2000/svg">
<path d="M40.588 9.41771C37.9015 5.9389 34.2437 3.33491 30.0771 1.93507C25.9106 0.535232 21.4226 0.402425 17.1806 1.55345C12.9386 2.70447 9.13321 5.08761 6.24572 8.40148C3.35822 11.7153 1.51832 15.8111 0.958698 20.1707C0.399079 24.5303 1.14488 28.9579 3.10179 32.8937C5.05869 36.8294 8.1388 40.0964 11.9526 42.2815C15.7663 44.4666 20.1424 45.4716 24.5274 45.1695C28.9124 44.8673 33.1093 43.2716 36.5873 40.5841C46.2955 33.0814 48.0872 19.1294 40.5873 9.41771H40.588Z" fill="#FF6C37"/>
<path d="M30.4949 14.9371L21.1249 24.3815L18.4771 21.6593C27.6991 12.4371 28.6248 13.2705 30.4956 14.9371H30.4949Z" fill="white"/>
<path d="M21.1248 24.6398C21.0418 24.6378 20.9626 24.6048 20.9026 24.5474L18.2359 21.8808C18.1759 21.8186 18.1423 21.7356 18.1423 21.6492C18.1423 21.5628 18.1759 21.4797 18.2359 21.4176C27.3282 12.3253 28.5692 12.751 30.7171 14.6954C30.753 14.7242 30.7818 14.761 30.8011 14.8028C30.8204 14.8446 30.8297 14.8904 30.8282 14.9364C30.8421 15.0267 30.8074 15.119 30.7358 15.1774L21.3658 24.5481C21.3001 24.6084 21.2139 24.6414 21.1248 24.6405V24.6398ZM18.9394 21.6586L21.1248 23.844L30.0136 14.9552C29.7067 14.5705 29.2688 14.3126 28.7836 14.2306C28.2984 14.1486 27.8 14.2483 27.3838 14.5107C25.7727 15.2329 23.1803 17.4364 18.9394 21.6586V21.6586Z" fill="#FF6C37"/>
<path d="M23.8102 26.9925L21.2546 24.3814L30.6247 15.1218C33.1435 17.585 29.4025 21.696 23.8102 26.9918V26.9925Z" fill="white"/>
<path d="M23.8104 27.3258C23.7285 27.3193 23.6507 27.287 23.5882 27.2335L20.9771 24.678C20.938 24.583 20.938 24.4764 20.9771 24.3814C20.9494 24.3035 20.9494 24.2184 20.9771 24.1405L30.3472 14.7704C30.4124 14.7092 30.4984 14.6751 30.5878 14.6751C30.6772 14.6751 30.7633 14.7092 30.8284 14.7704C31.1319 15.0497 31.3716 15.3911 31.5314 15.7713C31.6911 16.1515 31.7671 16.5617 31.7541 16.9739C31.7541 19.4739 28.9021 22.6217 24.0507 27.2147C23.9859 27.2789 23.9006 27.3182 23.8097 27.3258H23.8104ZM21.7361 24.3814L23.8285 26.4731C27.5319 22.9731 31.0694 19.3621 31.0875 16.9176C31.1076 16.3994 30.9363 15.8919 30.6062 15.492L21.7361 24.3814Z" fill="#FF6C37"/>
<path d="M18.5506 21.7148L20.4027 23.5669C20.4145 23.5773 20.424 23.5901 20.4305 23.6045C20.437 23.6189 20.4403 23.6345 20.4403 23.6502C20.4403 23.666 20.437 23.6816 20.4305 23.6959C20.424 23.7103 20.4145 23.7231 20.4027 23.7336L16.4951 24.5669C16.4162 24.5839 16.3339 24.5747 16.2608 24.5406C16.1876 24.5066 16.1276 24.4495 16.0899 24.3782C16.0521 24.3069 16.0387 24.2252 16.0517 24.1455C16.0647 24.0659 16.1033 23.9927 16.1618 23.937L18.4395 21.678C18.4395 21.678 18.5138 21.678 18.5506 21.7148Z" fill="white"/>
<path d="M16.4026 24.937C16.2791 24.9355 16.1581 24.9023 16.0512 24.8406C15.9442 24.779 15.8548 24.691 15.7915 24.5849C15.7203 24.4506 15.6945 24.2969 15.7179 24.1467C15.7413 23.9965 15.8127 23.8579 15.9214 23.7516L18.1804 21.4739C18.2618 21.401 18.3673 21.3608 18.4765 21.3608C18.5858 21.3608 18.6912 21.401 18.7727 21.4739L20.6248 23.3259C20.7345 23.4301 20.7775 23.5877 20.7359 23.7336C20.6942 23.8794 20.572 23.9954 20.4213 24.0301L16.5137 24.8634L16.4026 24.937ZM18.4769 22.1225L16.3845 24.2148L19.8477 23.4738L18.4769 22.1225Z" fill="#FF6C37"/>
<path d="M35.477 9.733C34.1367 8.43995 32.0311 8.38579 30.6255 9.60592C29.22 10.826 28.9797 12.9205 30.0741 14.4274C31.1686 15.9343 33.2318 16.3565 34.829 15.3996L32.3103 12.8809L35.477 9.733Z" fill="white"/>
<path d="M32.977 16.251C32.207 16.2411 31.4569 16.0049 30.8202 15.5717C30.1835 15.1385 29.6884 14.5275 29.3965 13.8149C29.1048 13.1028 29.0283 12.3209 29.1764 11.5657C29.3245 10.8106 29.6907 10.1155 30.2298 9.56633C30.9712 8.83854 31.9686 8.43079 33.0076 8.43079C34.0465 8.43079 35.0439 8.83854 35.7853 9.56633C35.8562 9.62605 35.8965 9.71425 35.8965 9.8073C35.8963 9.85309 35.8863 9.8983 35.8671 9.93987C35.8479 9.98145 35.8201 10.0184 35.7853 10.0483L32.7854 12.8816L35.0631 15.1225C35.1 15.1578 35.1277 15.2015 35.1438 15.2499C35.1599 15.2984 35.1639 15.35 35.1555 15.4003C35.15 15.4489 35.1339 15.4956 35.1083 15.5373C35.0828 15.5789 35.0484 15.6144 35.0076 15.6413C34.3956 16.0238 33.6922 16.2348 32.9708 16.2524L32.977 16.251ZM32.977 9.06564C31.6576 9.07259 30.477 9.86633 29.9819 11.0795C29.4867 12.2927 29.7562 13.6892 30.6812 14.6212C31.1413 15.0839 31.7304 15.397 32.3714 15.5193C33.0124 15.6416 33.6754 15.5674 34.2735 15.3066L32.0881 13.1212C32.0534 13.0934 32.0253 13.0581 32.0061 13.0181C31.9868 12.978 31.9768 12.9341 31.9768 12.8896C31.9768 12.8451 31.9868 12.8012 32.0061 12.7611C32.0253 12.721 32.0534 12.6858 32.0881 12.658L34.977 9.75036C34.4027 9.31024 33.7005 9.06959 32.977 9.06495V9.06564Z" fill="#FF6C37"/>
<path d="M35.5323 9.78854L32.3657 12.9364L34.8844 15.4551C35.1379 15.3096 35.3739 15.1356 35.5879 14.9364C36.248 14.2386 36.6112 13.3117 36.6008 12.3512C36.5905 11.3908 36.2074 10.4719 35.5323 9.78854V9.78854Z" fill="white"/>
<path d="M34.8284 15.733C34.7868 15.7352 34.7452 15.7281 34.7067 15.7121C34.6683 15.6961 34.6339 15.6717 34.6062 15.6406L32.0874 13.1219C32.0527 13.0941 32.0246 13.0588 32.0054 13.0188C31.9861 12.9787 31.9761 12.9348 31.9761 12.8903C31.9761 12.8458 31.9861 12.8019 32.0054 12.7618C32.0246 12.7217 32.0527 12.6865 32.0874 12.6587L35.2353 9.56633C35.2657 9.5205 35.307 9.48289 35.3555 9.45688C35.4039 9.43087 35.4581 9.41726 35.5131 9.41726C35.5681 9.41726 35.6222 9.43087 35.6707 9.45688C35.7192 9.48289 35.7605 9.5205 35.7909 9.56633C36.1604 9.92842 36.454 10.3606 36.6544 10.8376C36.8549 11.3146 36.9581 11.8267 36.9581 12.3441C36.9581 12.8615 36.8549 13.3736 36.6544 13.8506C36.454 14.3276 36.1604 14.7598 35.7909 15.1219C35.5729 15.3531 35.3234 15.5525 35.0499 15.7142C34.981 15.7489 34.9014 15.7556 34.8277 15.733H34.8284ZM32.7916 12.8816L34.8839 14.9739C35.0279 14.8731 35.1641 14.7616 35.2916 14.6406C35.9066 14.0272 36.2531 13.1947 36.2548 12.326C36.2562 11.5486 35.9728 10.7976 35.4582 10.2149L32.7916 12.8816Z" fill="#FF6C37"/>
<path d="M30.8838 15.326C30.6329 15.0905 30.3018 14.9594 29.9577 14.9594C29.6137 14.9594 29.2825 15.0905 29.0317 15.326L20.6436 23.6954L22.0324 25.103L30.9025 17.3253C31.0378 17.1956 31.1451 17.0397 31.2178 16.867C31.2905 16.6943 31.3271 16.5086 31.3254 16.3212C31.3236 16.1339 31.2835 15.9489 31.2076 15.7776C31.1316 15.6063 31.0214 15.4524 30.8838 15.3253V15.326Z" fill="white"/>
<path d="M21.9583 25.437C21.8753 25.435 21.7961 25.402 21.7361 25.3447L20.3285 23.937C20.2684 23.8749 20.2349 23.7918 20.2349 23.7054C20.2349 23.619 20.2684 23.536 20.3285 23.4738L28.7173 15.1218C28.9589 14.8805 29.2675 14.7173 29.6029 14.6535C29.9384 14.5896 30.2853 14.628 30.5987 14.7637C30.9121 14.8994 31.1775 15.1261 31.3605 15.4145C31.5434 15.7028 31.6356 16.0395 31.6249 16.3808C31.6153 16.6125 31.5595 16.84 31.4609 17.0498C31.3623 17.2597 31.2228 17.4478 31.0506 17.6031L22.1805 25.3808C22.116 25.4264 22.0367 25.4462 21.9583 25.4363V25.437ZM20.9771 23.6954L21.9028 24.6398L30.6061 17.0656C30.8214 16.8781 30.9499 16.61 30.9582 16.3246C30.9666 16.0392 30.8541 15.76 30.6436 15.5656C30.4493 15.3721 30.1863 15.2634 29.9121 15.2634C29.6378 15.2634 29.3748 15.3721 29.1805 15.5656L20.9771 23.6954Z" fill="#FF6C37"/>
<path d="M14.1436 33.2328C14.1199 33.265 14.1072 33.3039 14.1072 33.3439C14.1072 33.3839 14.1199 33.4228 14.1436 33.455L14.5138 35.0661C14.5286 35.1609 14.5145 35.258 14.4734 35.3447C14.4323 35.4314 14.366 35.5037 14.2832 35.5522C14.2007 35.6005 14.105 35.6213 14.0099 35.6117C13.9148 35.6021 13.8252 35.5625 13.7541 35.4988L11.2173 33.0543L19.1248 25.0842H21.8658L23.7178 26.9363C20.8288 29.4623 17.6075 31.5808 14.1436 33.2328V33.2328Z" fill="white"/>
<path d="M13.9771 35.955C13.7674 35.9508 13.5604 35.8647 13.4215 35.714L10.9959 33.2884C10.9611 33.2606 10.9331 33.2253 10.9138 33.1852C10.8945 33.1452 10.8845 33.1012 10.8845 33.0568C10.8845 33.0123 10.8945 32.9684 10.9138 32.9283C10.9331 32.8882 10.9611 32.8529 10.9959 32.8252L18.9583 24.844C19.0029 24.7966 19.0611 24.7643 19.125 24.7516H21.884C21.9559 24.7262 22.0343 24.7262 22.1062 24.7516L23.9583 26.6037C23.9935 26.6362 24.0203 26.6767 24.0364 26.7218C24.0524 26.7669 24.0573 26.8153 24.0506 26.8627C24.0519 26.9087 24.0426 26.9544 24.0233 26.9962C24.004 27.038 23.9753 27.0748 23.9395 27.1037L23.7916 27.2335C20.8909 29.6518 17.6995 31.6984 14.2917 33.3259L14.6438 34.8258C14.671 34.9416 14.672 35.0619 14.6468 35.178C14.6216 35.2942 14.5708 35.4033 14.498 35.4973C14.4253 35.5913 14.3325 35.6679 14.2264 35.7215C14.1203 35.7751 14.0036 35.8043 13.8847 35.8071L13.9771 35.955ZM11.7181 33.0474L13.9028 35.2508C13.9231 35.269 13.9495 35.279 13.9767 35.279C14.004 35.279 14.0303 35.269 14.0507 35.2508C14.0643 35.2319 14.0716 35.2092 14.0716 35.1859C14.0716 35.1626 14.0643 35.1399 14.0507 35.121L13.6806 33.5099C13.6514 33.3943 13.6631 33.2721 13.7137 33.1641C13.7644 33.0562 13.8508 32.969 13.9583 32.9175C17.2746 31.3118 20.3836 29.3094 23.2173 26.9544L21.6986 25.4356H19.2173L11.7181 33.0474Z" fill="#FF6C37"/>
<path d="M9.31048 34.955L11.1625 33.1029L14.0146 35.9549L9.47784 35.6404C9.39994 35.6343 9.32597 35.6037 9.26647 35.5531C9.20697 35.5024 9.16499 35.4343 9.14651 35.3584C9.12803 35.2825 9.134 35.2026 9.16357 35.1303C9.19314 35.058 9.2448 34.9969 9.31117 34.9557L9.31048 34.955Z" fill="white"/>
<path d="M14.0693 36.2328L9.55063 35.9182C9.28258 35.8932 9.05203 35.7099 8.95759 35.4647C8.86314 35.2196 8.92078 34.9286 9.10619 34.7328L10.9583 32.8807C11.0204 32.8207 11.1034 32.7871 11.1898 32.7871C11.2763 32.7871 11.3593 32.8207 11.4214 32.8807L14.2547 35.714C14.294 35.7678 14.3151 35.8326 14.3151 35.8991C14.3151 35.9656 14.294 36.0304 14.2547 36.0842C14.2119 36.1534 14.1464 36.2057 14.0693 36.2321V36.2328ZM9.55063 35.196L13.2541 35.4369L11.2173 33.5293L9.55063 35.196Z" fill="#FF6C37"/>
<path d="M22.1249 25.3078L18.384 25.8821L20.5507 23.7343L22.1249 25.3078Z" fill="white"/>
<path d="M18.3841 26.2329C18.3219 26.2345 18.2606 26.2178 18.2079 26.1848C18.1552 26.1518 18.1133 26.1041 18.0876 26.0475C18.0481 25.9938 18.0269 25.929 18.0269 25.8624C18.0269 25.7958 18.0481 25.731 18.0876 25.6773L20.2354 23.5106C20.3006 23.4494 20.3866 23.4153 20.476 23.4153C20.5655 23.4153 20.6515 23.4494 20.7167 23.5106L22.2916 25.0843C22.3231 25.1342 22.3398 25.1919 22.3398 25.2509C22.3398 25.3099 22.3231 25.3677 22.2916 25.4176C22.2762 25.4784 22.2435 25.5335 22.1976 25.5762C22.1517 25.619 22.0944 25.6475 22.0326 25.6586L18.3292 26.2329H18.3841ZM20.5507 24.2141L19.3472 25.4176L21.4215 25.103L20.5507 24.2141Z" fill="#FF6C37"/>
<path d="M22.1249 25.3065L19.5138 25.6398C19.4439 25.6557 19.3708 25.6486 19.3053 25.6196C19.2397 25.5907 19.1853 25.5414 19.15 25.479C19.1147 25.4167 19.1004 25.3446 19.1093 25.2735C19.1181 25.2024 19.1497 25.136 19.1992 25.0843L20.5513 23.7322L22.1249 25.3065Z" fill="white"/>
<path d="M19.4395 25.9926C19.3185 25.9914 19.1999 25.9583 19.0959 25.8964C18.9918 25.8346 18.906 25.7463 18.8472 25.6405C18.7765 25.5138 18.749 25.3674 18.7691 25.2236C18.7891 25.0799 18.8556 24.9466 18.9583 24.844L20.3104 23.4919C20.3755 23.4307 20.4616 23.3966 20.551 23.3966C20.6404 23.3966 20.7264 23.4307 20.7916 23.4919L22.3659 25.0662C22.4127 25.1106 22.4456 25.1676 22.4607 25.2303C22.4758 25.293 22.4724 25.3587 22.4508 25.4195C22.4293 25.4803 22.3906 25.5335 22.3394 25.5728C22.2882 25.612 22.2267 25.6355 22.1624 25.6405L19.5701 25.9738L19.4395 25.9926ZM19.4395 25.3072L21.4027 25.0662L20.5326 24.1961L19.4215 25.3072H19.4395ZM35.5505 11.9184C35.5156 11.8599 35.4605 11.8163 35.3956 11.7959C35.3307 11.7754 35.2605 11.7794 35.1984 11.8073C35.1678 11.8228 35.1405 11.8443 35.1183 11.8706C35.0962 11.8968 35.0795 11.9272 35.0692 11.96C35.0486 12.0263 35.0551 12.0979 35.0873 12.1594C35.2172 12.4323 35.181 12.7552 34.9949 12.9927C34.9718 13.0156 34.9537 13.043 34.9418 13.0732C34.9298 13.1035 34.9243 13.1359 34.9255 13.1684C34.9262 13.2335 34.9509 13.2961 34.9949 13.3441C35.0425 13.3628 35.0953 13.3628 35.1429 13.3441C35.186 13.3549 35.2312 13.3537 35.2737 13.3406C35.3162 13.3275 35.3543 13.303 35.3838 13.2698C35.5363 13.0831 35.6329 12.857 35.6624 12.6178C35.6919 12.3785 35.6531 12.1358 35.5505 11.9177V11.9184Z" fill="#FF6C37"/>
</svg>
