<svg width="46" height="44" viewBox="0 0 46 44" fill="none" xmlns="http://www.w3.org/2000/svg">
<path d="M0.777832 0.148163H45.2223V43.8518H0.777832V0.148163Z" fill="url(#paint0_linear_510_39)"/>
<path d="M4.3125 3.62368H41.6879V40.3766H4.3125V3.62368Z" fill="url(#paint1_linear_510_39)"/>
<path d="M11.5182 12.4658C11.5182 12.4658 14.3283 12.3919 16.6415 12.3919C18.979 12.3919 20.6456 12.9418 21.7646 13.9082C22.8341 14.8214 23.5553 16.3781 23.5553 18.1503C23.5553 19.9224 23.008 21.3725 22.013 22.3921C20.7198 23.7078 19.2129 24.4866 16.6415 24.5943C15.9311 24.6241 15.2736 24.6312 15.2736 24.6312V30.3918H11.5181L11.5182 12.4658V12.4658ZM15.2735 21.4396C15.6815 21.4793 15.9372 21.4602 16.5419 21.4529C18.5564 21.4288 19.7995 20.2038 19.7995 18.3512C19.7995 16.6869 18.7745 15.3203 16.8406 15.2495C16.0698 15.2214 15.2735 15.2495 15.2735 15.2495V21.4396V21.4396Z" fill="url(#paint2_linear_510_39)"/>
<path d="M24.9885 26.3786C25.7453 26.8431 27.5314 27.5386 28.7489 27.5386C29.9927 27.5386 30.5064 27.1003 30.5064 26.4168C30.5064 25.7325 30.1008 25.0137 28.559 24.494C25.8273 23.5638 24.7723 22.4503 24.7997 20.8918C24.7997 18.3746 26.909 16.4872 30.1816 16.4872C31.7233 16.4872 32.9548 16.9912 33.7655 17.4013V20.4223C33.1699 20.0937 31.4528 19.3601 30.317 19.3601C29.3157 19.3601 28.7482 19.7705 28.7482 20.4537C28.7482 21.0831 29.2624 21.4114 30.885 21.9862C33.3999 22.8614 34.4548 24.1468 34.4815 26.1164C34.4815 28.606 32.5624 30.5857 28.7482 30.4656C27.4391 30.4244 25.9889 29.9069 24.9882 29.3605L24.9885 26.3786V26.3786Z" fill="url(#paint3_linear_510_39)"/>
<defs>
<linearGradient id="paint0_linear_510_39" x1="11.5786" y1="-2.13421" x2="28.6156" y2="33.8659" gradientUnits="userSpaceOnUse">
<stop stop-color="#A0CBFF"/>
<stop offset="0.394" stop-color="#A0CBFE"/>
<stop offset="0.583" stop-color="#8EC2FC"/>
<stop offset="0.784" stop-color="#83BCFB"/>
<stop offset="1" stop-color="#7FBAFB"/>
</linearGradient>
<linearGradient id="paint1_linear_510_39" x1="17.626" y1="4.14161" x2="27.2556" y2="36.1419" gradientUnits="userSpaceOnUse">
<stop stop-color="#090058"/>
<stop offset="1" stop-color="#070033"/>
</linearGradient>
<linearGradient id="paint2_linear_510_39" x1="6.27955" y1="-0.218623" x2="23.3164" y2="35.7811" gradientUnits="userSpaceOnUse">
<stop stop-color="#A0CBFF"/>
<stop offset="0.394" stop-color="#A0CBFE"/>
<stop offset="0.583" stop-color="#8EC2FC"/>
<stop offset="0.784" stop-color="#83BCFB"/>
<stop offset="1" stop-color="#7FBAFB"/>
</linearGradient>
<linearGradient id="paint3_linear_510_39" x1="15.9839" y1="-4.91916" x2="33.0883" y2="31.2232" gradientUnits="userSpaceOnUse">
<stop stop-color="#A0CBFF"/>
<stop offset="0.394" stop-color="#A0CBFE"/>
<stop offset="0.583" stop-color="#8EC2FC"/>
<stop offset="0.784" stop-color="#83BCFB"/>
<stop offset="1" stop-color="#7FBAFB"/>
</linearGradient>
</defs>
</svg>
