<svg width="46" height="34" viewBox="0 0 46 34" fill="none" xmlns="http://www.w3.org/2000/svg">
<path d="M39.048 19.4952C37.4974 19.5033 36.1499 19.8767 35.0215 20.4287C34.6075 19.6088 34.1934 18.8782 34.1204 18.3424C34.0392 17.7173 33.9418 17.3358 34.0392 16.5889C34.1366 15.8421 34.575 14.7786 34.5669 14.6975C34.5587 14.6163 34.4694 14.2347 33.5765 14.2266C32.6835 14.2185 31.9123 14.3971 31.823 14.6325C31.7337 14.8679 31.5632 15.4037 31.4496 15.9557C31.2953 16.7675 29.6636 19.6656 28.7301 21.1837C28.4297 20.5911 28.1699 20.0715 28.1131 19.6575C28.0319 19.0324 27.9345 18.6509 28.0319 17.904C28.1293 17.1572 28.5677 16.0937 28.5596 16.0126C28.5515 15.9314 28.4622 15.5498 27.5692 15.5417C26.6762 15.5336 25.905 15.7122 25.8157 15.9476C25.7264 16.183 25.629 16.7351 25.4423 17.2708C25.2556 17.8066 23.0881 22.6449 22.5198 23.8951C22.2276 24.5364 21.9759 25.0478 21.7973 25.3969C21.7973 25.3969 21.7892 25.4213 21.7649 25.4619C21.6106 25.7622 21.5213 25.9246 21.5213 25.9246C21.5213 25.9246 21.5213 25.9246 21.5213 25.9327C21.3996 26.1519 21.2697 26.3548 21.2047 26.3548C21.156 26.3548 21.0667 25.7703 21.221 24.9748C21.5457 23.2944 22.3169 20.6804 22.3088 20.5911C22.3088 20.5424 22.4549 20.0878 21.8054 19.8524C21.1722 19.6169 20.9449 20.0066 20.8881 20.0066C20.8313 20.0066 20.7907 20.1446 20.7907 20.1446C20.7907 20.1446 21.497 17.2059 19.4431 17.2059C18.1605 17.2059 16.3908 18.6103 15.514 19.8767C14.962 20.1771 13.7849 20.8184 12.5266 21.5084C12.0477 21.7763 11.5525 22.0442 11.0898 22.2959C11.0573 22.2634 11.0248 22.2228 10.9923 22.1903C8.50825 19.5358 3.91349 17.6605 4.10832 14.0967C4.18138 12.7979 4.62787 9.38832 12.9325 5.24816C19.7678 1.87921 25.2069 2.81278 26.1486 4.88286C27.4961 7.83779 23.2342 13.3255 16.1716 14.1211C13.4764 14.4214 12.0639 13.3823 11.7067 12.9927C11.3333 12.5868 11.2765 12.5624 11.1385 12.6436C10.9112 12.7654 11.0573 13.1307 11.1385 13.3418C11.3495 13.8938 12.2182 14.8679 13.6875 15.3469C14.9864 15.769 18.1443 16.0044 21.9678 14.527C26.246 12.8709 29.5906 8.26804 28.6083 4.41202C27.626 0.499163 21.1317 -0.79159 14.9864 1.39214C11.3333 2.69101 7.37174 4.73673 4.52233 7.39942C1.13715 10.5654 0.601366 13.3174 0.82055 14.4702C1.60799 18.5616 7.24997 21.2243 9.50676 23.1969C9.39311 23.2619 9.28757 23.3187 9.19827 23.3674C8.06988 23.9276 3.76737 26.1762 2.6958 28.5548C1.4781 31.25 2.89063 33.182 3.82419 33.4418C6.7223 34.2455 9.70159 32.8005 11.3008 30.4138C12.9001 28.0271 12.7052 24.9261 11.9665 23.5054C11.9584 23.4892 11.9503 23.473 11.934 23.4567C12.2263 23.2862 12.5266 23.1077 12.8189 22.9372C13.3953 22.5962 13.9635 22.2796 14.4506 22.0198C14.1746 22.7748 13.9716 23.6759 13.8742 24.9748C13.7524 26.501 14.3775 28.4817 15.1974 29.2611C15.5627 29.602 15.993 29.6101 16.269 29.6101C17.2269 29.6101 17.6572 28.8146 18.1361 27.8729C18.7206 26.7201 19.2483 25.3807 19.2483 25.3807C19.2483 25.3807 18.5907 29.0013 20.3767 29.0013C21.0261 29.0013 21.6837 28.157 21.9759 27.7268C21.9759 27.7349 21.9759 27.7349 21.9759 27.7349C21.9759 27.7349 21.9922 27.7105 22.0246 27.6537C22.0896 27.5482 22.1302 27.4832 22.1302 27.4832C22.1302 27.4832 22.1302 27.4751 22.1302 27.467C22.3899 27.0124 22.9744 25.9814 23.8431 24.2685C24.9633 22.0604 26.043 19.3003 26.043 19.3003C26.043 19.3003 26.1404 19.9741 26.4733 21.0944C26.6681 21.752 27.074 22.4745 27.3987 23.1726C27.1389 23.5379 26.9766 23.7409 26.9766 23.7409C26.9766 23.7409 26.9766 23.7409 26.9847 23.749C26.7736 24.025 26.5463 24.3253 26.2947 24.6176C25.4098 25.6729 24.3545 26.8825 24.2084 27.2316C24.0379 27.6456 24.0785 27.946 24.4032 28.1895C24.6386 28.3681 25.0607 28.3924 25.491 28.3681C26.2866 28.3113 26.8467 28.1164 27.1227 27.9947C27.553 27.8404 28.0563 27.605 28.5271 27.2559C29.3957 26.6146 29.9234 25.6973 29.8747 24.4877C29.8503 23.822 29.6312 23.1564 29.3633 22.5313C29.4444 22.4176 29.5175 22.304 29.5987 22.1903C30.9706 20.1852 32.0341 17.9852 32.0341 17.9852C32.0341 17.9852 32.1315 18.659 32.4643 19.7793C32.6267 20.3476 32.9595 20.9645 33.2518 21.5652C31.961 22.6125 31.1654 23.8302 30.8813 24.6257C30.3699 26.1032 30.7677 26.7688 31.5226 26.9231C31.8636 26.9961 32.3507 26.8338 32.7079 26.6795C33.1625 26.5334 33.6982 26.2818 34.2097 25.9083C35.0783 25.267 35.9144 24.3741 35.8657 23.1645C35.8414 22.6125 35.6953 22.0686 35.4923 21.5409C36.5882 21.0863 38.0008 20.8346 39.8029 21.0457C43.6671 21.5003 44.4302 23.9113 44.2841 24.9261C44.1379 25.9408 43.3261 26.4928 43.0582 26.6633C42.7903 26.8338 42.7011 26.8906 42.7254 27.0124C42.7579 27.191 42.8878 27.1829 43.1151 27.1504C43.4317 27.0936 45.1446 26.3305 45.2176 24.4634C45.3394 22.0767 43.0664 19.4708 39.048 19.4952ZM9.23886 29.5452C7.95623 30.9415 6.17028 31.4691 5.39907 31.0227C4.57104 30.5437 4.89576 28.4817 6.47064 27.0043C7.42856 26.1032 8.66249 25.267 9.4824 24.7556C9.66912 24.6419 9.94513 24.4796 10.278 24.2766C10.3348 24.2442 10.3673 24.2279 10.3673 24.2279C10.4322 24.1873 10.4971 24.1467 10.5621 24.1062C11.1385 26.2168 10.5864 28.0758 9.23886 29.5452ZM18.5745 23.1969C18.128 24.2848 17.1945 27.0692 16.6262 26.915C16.1391 26.7851 15.8388 24.6744 16.5288 22.5881C16.8779 21.5409 17.6166 20.2907 18.0468 19.8036C18.745 19.0243 19.5162 18.7645 19.7029 19.0811C19.9383 19.4952 18.8505 22.515 18.5745 23.1969ZM26.2784 26.8825C26.0917 26.9799 25.9131 27.0449 25.832 26.9961C25.7751 26.9637 25.9131 26.8338 25.9131 26.8338C25.9131 26.8338 26.8792 25.7947 27.2607 25.3239C27.4799 25.0478 27.7397 24.7231 28.0157 24.3578C28.0157 24.3903 28.0157 24.4309 28.0157 24.4634C28.0157 25.7054 26.8142 26.5415 26.2784 26.8825ZM32.2208 25.5268C32.0828 25.4294 32.1071 25.1047 32.5698 24.0899C32.7484 23.6921 33.1706 23.0265 33.8931 22.3852C33.9743 22.6449 34.0311 22.8966 34.023 23.132C34.0148 24.6988 32.8946 25.2833 32.2208 25.5268Z" fill="#CD6799"/>
</svg>
